<?xml version="1.0" encoding="utf-8"?>
<!-- Generator: Adobe Illustrator 25.2.1, SVG Export Plug-In . SVG Version: 6.00 Build 0)  -->
<svg version="1.1" id="Layer_1" xmlns="http://www.w3.org/2000/svg" xmlns:xlink="http://www.w3.org/1999/xlink" x="0px" y="0px"
	 viewBox="0 0 438 438" style="enable-background:new 0 0 438 438;" xml:space="preserve">
<style type="text/css">
	.st0{fill:#F3F4F6;}
	.st1{fill:none;stroke:#A3B2BE;stroke-width:2.5;stroke-linecap:round;stroke-linejoin:round;stroke-miterlimit:10;}
	.st2{fill:#312D4E;}
	.st3{fill:#E66239;}
	.st4{opacity:0.1;}
	.st5{fill:#FFFFFF;}
</style>
<g>
	<circle class="st0" cx="219" cy="219" r="215"/>
	<g>
		<g>
			<g>
				<g>
					<polyline class="st1" points="353.4,164.2 367.8,149.8 389.8,149.8 					"/>
					<path class="st1" d="M402.7,149.8c0,3.5-2.9,6.4-6.4,6.4c-3.5,0-6.4-2.9-6.4-6.4c0-3.5,2.9-6.4,6.4-6.4
						C399.8,143.4,402.7,146.3,402.7,149.8z"/>
				</g>
				<g>
					<polyline class="st1" points="353.4,174.2 367.8,188.7 382.3,188.7 391.5,179.5 410.2,179.5 					"/>
					<path class="st1" d="M422.7,179.5c0,3.5-2.9,6.4-6.4,6.4c-3.5,0-6.4-2.9-6.4-6.4s2.9-6.4,6.4-6.4
						C419.8,173.1,422.7,175.9,422.7,179.5z"/>
				</g>
				<g>
					<polyline class="st1" points="353.4,254.6 367.8,269 389.8,269 					"/>
					<path class="st1" d="M402.7,269c0-3.5-2.9-6.4-6.4-6.4c-3.5,0-6.4,2.9-6.4,6.4c0,3.5,2.9,6.4,6.4,6.4
						C399.8,275.4,402.7,272.5,402.7,269z"/>
				</g>
				<g>
					<polyline class="st1" points="355,243 367.8,230.1 382.3,230.1 391.5,239.3 410.2,239.3 					"/>
					<path class="st1" d="M422.7,239.3c0-3.5-2.9-6.4-6.4-6.4c-3.5,0-6.4,2.9-6.4,6.4s2.9,6.4,6.4,6.4
						C419.8,245.7,422.7,242.9,422.7,239.3z"/>
				</g>
				<g>
					<line class="st1" x1="353.4" y1="209.4" x2="421.2" y2="209.4"/>
					<path class="st1" d="M434,209.4c0,3.5-2.9,6.4-6.4,6.4c-3.5,0-6.4-2.9-6.4-6.4c0-3.5,2.9-6.4,6.4-6.4
						C431.1,203,434,205.9,434,209.4z"/>
				</g>
			</g>
			<g>
				<g>
					<polyline class="st1" points="84.6,164.2 70.2,149.8 48.2,149.8 					"/>
					<path class="st1" d="M35.3,149.8c0,3.5,2.9,6.4,6.4,6.4c3.5,0,6.4-2.9,6.4-6.4c0-3.5-2.9-6.4-6.4-6.4
						C38.2,143.4,35.3,146.3,35.3,149.8z"/>
				</g>
				<g>
					<polyline class="st1" points="84.6,174.2 70.2,188.7 55.7,188.7 46.5,179.5 27.8,179.5 					"/>
					<path class="st1" d="M15.3,179.5c0,3.5,2.9,6.4,6.4,6.4c3.5,0,6.4-2.9,6.4-6.4s-2.9-6.4-6.4-6.4
						C18.2,173.1,15.3,175.9,15.3,179.5z"/>
				</g>
				<g>
					<polyline class="st1" points="84.6,254.6 70.2,269 48.2,269 					"/>
					<path class="st1" d="M35.3,269c0-3.5,2.9-6.4,6.4-6.4c3.5,0,6.4,2.9,6.4,6.4c0,3.5-2.9,6.4-6.4,6.4
						C38.2,275.4,35.3,272.5,35.3,269z"/>
				</g>
				<g>
					<polyline class="st1" points="83,243 70.2,230.1 55.7,230.1 46.5,239.3 27.8,239.3 					"/>
					<path class="st1" d="M15.3,239.3c0-3.5,2.9-6.4,6.4-6.4c3.5,0,6.4,2.9,6.4,6.4s-2.9,6.4-6.4,6.4
						C18.2,245.7,15.3,242.9,15.3,239.3z"/>
				</g>
				<g>
					<line class="st1" x1="84.6" y1="209.4" x2="16.8" y2="209.4"/>
					<path class="st1" d="M4,209.4c0,3.5,2.9,6.4,6.4,6.4s6.4-2.9,6.4-6.4c0-3.5-2.9-6.4-6.4-6.4S4,205.9,4,209.4z"/>
				</g>
			</g>
		</g>
		<g>
			<path class="st2" d="M286,356.7H152c-1.5,0-2.7-1.2-2.7-2.7v-10.5c0-1.5,1.2-2.7,2.7-2.7H286c1.5,0,2.7,1.2,2.7,2.7V354
				C288.7,355.5,287.5,356.7,286,356.7z"/>
			<path class="st2" d="M243,329.4H195c-1.5,0-2.8-1.2-2.8-2.8v-14.9c0-1.5,1.2-2.8,2.8-2.8H243c1.5,0,2.8,1.2,2.8,2.8v14.9
				C245.8,328.2,244.6,329.4,243,329.4z"/>
			<path class="st3" d="M355.4,297.6H82.6c-1.5,0-2.8-1.2-2.8-2.8V124c0-1.5,1.2-2.8,2.8-2.8h272.8c1.5,0,2.8,1.2,2.8,2.8v170.8
				C358.2,296.3,357,297.6,355.4,297.6z"/>
			<path class="st2" d="M344.3,136.7v145.5c0,0.8-0.7,1.5-1.5,1.5H95.2c-0.8,0-1.5-0.7-1.5-1.5V136.7c0-0.8,0.7-1.5,1.5-1.5h247.5
				C343.6,135.2,344.3,135.8,344.3,136.7z"/>
			<g class="st4">
				<polygon class="st5" points="124.9,135.2 93.7,182.9 93.7,165 113.2,135.2 				"/>
				<polygon class="st5" points="172.9,135.2 93.7,256.3 93.7,218.1 148,135.2 				"/>
				<polygon class="st5" points="207.6,135.2 110.6,283.6 99,283.6 196,135.2 				"/>
				<polygon class="st5" points="249,135.2 152,283.6 140.3,283.6 237.3,135.2 				"/>
				<polygon class="st5" points="297,135.2 200,283.6 175,283.6 272,135.2 				"/>
				<polygon class="st5" points="331.7,135.2 234.7,283.6 223,283.6 320,135.2 				"/>
				<polygon class="st5" points="344.3,161.4 344.3,179.2 276,283.6 264.4,283.6 				"/>
				<polygon class="st5" points="344.3,214.5 344.3,252.7 324.1,283.6 299.1,283.6 				"/>
			</g>
		</g>
	</g>
</g>
</svg>
