<?xml version="1.0" encoding="utf-8"?>
<!-- Generator: Adobe Illustrator 25.2.1, SVG Export Plug-In . SVG Version: 6.00 Build 0)  -->
<svg version="1.1" id="Layer_1" xmlns="http://www.w3.org/2000/svg" xmlns:xlink="http://www.w3.org/1999/xlink" x="0px" y="0px"
	 viewBox="0 0 438 438" style="enable-background:new 0 0 438 438;" xml:space="preserve">
<style type="text/css">
	.st0{fill:#F3F4F6;}
	.st1{fill:none;}
	.st2{fill:#E64414;}
	.st3{fill:#FFFFFF;}
	.st4{fill:#D23017;}
	.st5{fill:#F5BA00;}
	.st6{fill:#F18A00;}
	.st7{fill:#2EAEE0;}
	.st8{fill:#0084B3;}
	.st9{fill:#652E16;}
</style>
<g>
	<circle class="st0" cx="219" cy="219" r="215"/>
	<g>
		<rect x="206.7" y="223.2" class="st1" width="40" height="31.7"/>
		<rect x="206.7" y="266.4" class="st1" width="40" height="34.6"/>
		<rect x="206.7" y="185.1" class="st1" width="40" height="26.6"/>
		<rect x="258.2" y="223.2" class="st1" width="40" height="31.7"/>
		<rect x="258.2" y="185.1" class="st1" width="40" height="26.6"/>
		<path class="st1" d="M195.1,223.2H149c2.2,10.6,4.3,21.1,6.5,31.7h39.7V223.2z"/>
		<path class="st1" d="M195.1,266.4h-37.4c1.7,8.1,3.3,16.3,5,24.4c2.7-0.6,5.4-0.9,8.2-0.9c9.2,0,17.6,3.3,24.2,8.8V266.4z"/>
		<path class="st1" d="M146.6,211.7h48.5v-26.6h-54C143,194,144.8,202.9,146.6,211.7z"/>
		<rect x="258.2" y="266.4" class="st1" width="40" height="34.6"/>
		<path class="st1" d="M309.8,254.9h39.7c2.2-10.6,4.3-21.1,6.5-31.7h-46.2V254.9z"/>
		<path class="st1" d="M309.8,211.7h48.5c1.8-8.9,3.6-17.7,5.4-26.6h-54V211.7z"/>
		<path class="st1" d="M309.8,294.1c5.1-2.7,11-4.1,17.2-4.1c5.3,0,10.3,1.1,14.8,3c1.8-8.8,3.6-17.7,5.4-26.5h-37.4V294.1z"/>
		<polygon class="st2" points="135,151.3 129.6,173.6 281.4,173.6 300.1,151.3 		"/>
		<path class="st2" d="M63.6,108.5l-14,7.3c0.7,1,1.8,1.9,3.1,2.3l14,4.8l15.7-8L63.6,108.5z"/>
		<path class="st3" d="M56.8,106.2c-3.3-1.1-6.9,0.7-8,4c-0.7,2-0.3,4.1,0.9,5.7l14-7.3L56.8,106.2z"/>
		<path class="st3" d="M126,151.3c-6.1,0-11.1,5-11.1,11.1c0,6.1,5,11.1,11.1,11.1h3.7l5.4-22.3H126z"/>
		<path class="st4" d="M390.1,162.5c0-6.1-5-11.1-11.1-11.1h-78.9l-18.8,22.3H379C385.1,173.6,390.1,168.6,390.1,162.5z"/>
		<path class="st4" d="M92.1,124.9c1.1-3.3-0.7-6.9-4-8l-5.8-2l-15.7,8l17.4,5.9C87.4,130,91,128.2,92.1,124.9z"/>
		<path class="st5" d="M135.7,215.7c-2.1-10.2-4.2-20.4-6.2-30.6h-3.2l-3.4,17.7l17.7,86.6l6.1-20.2
			C142.9,251.4,139.3,233.5,135.7,215.7z"/>
		<path class="st3" d="M126,185.1c-2.4,0-4.8-0.4-7-1.1l3.8,18.8l3.4-17.7H126z"/>
		<path class="st6" d="M205.5,312.6c1.2,2.9,2.1,5.9,2.6,9.1h81.8c0.5-3.2,1.4-6.2,2.6-9.1h-40H205.5z"/>
		<path class="st6" d="M151.9,295.1c-1.8-8.6-3.5-17.3-5.3-25.9l-6.1,20.2l2.6,12.9C145.7,299.5,148.6,297.1,151.9,295.1z"/>
		<path class="st7" d="M309.9,347c2.1,1.9,4.6,3.4,7.2,4.5c3.4-3.4,6.1-7.2,8.1-11.3c-6.3-0.8-11.1-6.2-11.1-12.7
			c0-7.1,5.8-12.9,12.9-12.9c1.4,0,2.8,0.2,4.1,0.7c0.2-4.8-0.1-9.4-0.5-13.6c-1.2-0.2-2.4-0.3-3.6-0.3c-1.2,0-2.5,0.1-3.7,0.3
			C309.1,309.5,298.8,327,309.9,347z"/>
		<path class="st3" d="M309.9,347c-11.1-20.1-0.8-37.5,13.4-45.3c-12.6,1.8-22.3,12.6-22.3,25.7C300.9,335.3,304.4,342.3,309.9,347z
			"/>
		<path class="st8" d="M331.1,315.2c5.1,1.7,8.8,6.5,8.8,12.2c0,7.1-5.8,12.9-12.9,12.9c-0.6,0-1.2-0.1-1.7-0.1
			c-2,4.1-4.7,7.9-8.1,11.3c3,1.2,6.4,1.9,9.9,1.9c14.4,0,26-11.6,26-26c0-13.1-9.8-24-22.4-25.8C331,305.9,331.2,310.5,331.1,315.2
			z"/>
		<path class="st5" d="M330.6,321.3c-1.1-0.6-2.3-1-3.6-1c-3.9,0-7.1,3.2-7.1,7.1c0,3.9,3.2,7.1,7.1,7.1c0.2,0,0.4,0,0.6,0
			C329.1,330.2,330.1,325.8,330.6,321.3z"/>
		<path class="st6" d="M327.6,334.5c3.6-0.3,6.5-3.4,6.5-7.1c0-2.6-1.4-4.9-3.5-6.1C330.1,325.8,329.1,330.2,327.6,334.5z"/>
		<path class="st7" d="M158.1,327.4c0-7.1,5.8-12.9,12.9-12.9c1.6,0,3.2,0.3,4.6,0.9c0.2-4.8,0-9.5-0.5-13.7
			c-1.3-0.2-2.7-0.3-4.1-0.3c-1.6,0-3.2,0.2-4.7,0.4c-13.7,7.7-23.6,24.4-13.8,43.8c2.5,2.6,5.6,4.7,9.1,6c3.5-3.4,6.2-7.3,8.2-11.4
			C163.2,339.6,158.1,334.1,158.1,327.4z"/>
		<path class="st3" d="M166.3,301.9c-12.1,2.2-21.3,12.8-21.3,25.6c0,7.1,2.8,13.5,7.4,18.2C142.7,326.3,152.6,309.6,166.3,301.9z"
			/>
		<path class="st8" d="M197,327.4c0-13-9.5-23.7-21.9-25.7c0.5,4.2,0.7,8.9,0.5,13.7c4.8,1.9,8.3,6.5,8.3,12
			c0,7.1-5.8,12.9-12.9,12.9c-0.4,0-0.8,0-1.3-0.1c-2.1,4.1-4.7,8-8.2,11.4c2.9,1.2,6.1,1.8,9.5,1.8
			C185.4,353.4,197,341.8,197,327.4z"/>
		<path class="st5" d="M163.9,327.4c0,3.9,3.2,7.1,7.1,7.1c0.4,0,0.8,0,1.2-0.1c1.5-4.2,2.4-8.5,2.9-12.8c-1.2-0.8-2.6-1.3-4.1-1.3
			C167.1,320.3,163.9,323.5,163.9,327.4z"/>
		<path class="st6" d="M172.2,334.5c3.4-0.6,5.9-3.5,5.9-7c0-2.4-1.2-4.5-3-5.8C174.6,325.9,173.6,330.3,172.2,334.5z"/>
		<path class="st9" d="M379,139.8H126c-5.7,0-10.9,2.1-14.9,5.6l-3.5-17.2c0-2.3-1.4-4.5-3.6-5.4c0-7.4-4.7-14.4-12.1-16.9
			L60.5,95.2c-9.3-3.2-19.5,1.8-22.7,11.1c-3.2,9.3,1.8,19.5,11.1,22.6l31.4,10.7c6.1,2.1,12.5,0.7,17.2-3.2l37.1,181.5
			c-0.8,3-1.2,6.1-1.2,9.3c0,20.7,16.8,37.5,37.5,37.5c18.8,0,34.3-13.8,37.1-31.8h81.8c2.8,18,18.3,31.8,37.1,31.8
			c20.7,0,37.5-16.8,37.5-37.5c0-11.2-4.9-21.2-12.6-28c0.4-1.1,0.8-2.3,1-3.4c5.5-26.8,10.9-53.5,16.4-80.3
			c2.1-10.2,4.2-20.4,6.2-30.6h3.5c12.5,0,22.7-10.2,22.7-22.7v0C401.7,150,391.5,139.8,379,139.8z M84.1,128.8l-17.4-5.9l-14-4.8
			c-1.3-0.4-2.4-1.3-3.1-2.3c-1.1-1.6-1.5-3.7-0.9-5.7c1.1-3.3,4.7-5.1,8-4l6.8,2.3l18.8,6.4l5.8,2c3.3,1.1,5.1,4.7,4,8
			C91,128.2,87.4,130,84.1,128.8z M289.9,321.7h-81.8c-0.5-3.2-1.4-6.2-2.6-9.1h47h40C291.2,315.5,290.4,318.5,289.9,321.7z
			 M161.5,351.6c-3.4-1.4-6.5-3.4-9.1-6c-4.6-4.7-7.4-11.1-7.4-18.2c0-12.7,9.2-23.3,21.3-25.6c1.5-0.3,3.1-0.4,4.7-0.4
			c1.4,0,2.8,0.1,4.1,0.3c12.4,2,21.9,12.7,21.9,25.7c0,14.4-11.6,26-26,26C167.6,353.4,164.4,352.8,161.5,351.6z M122.8,202.8
			L119,184c2.2,0.7,4.5,1.1,7,1.1h0.3h3.2c2.1,10.2,4.2,20.4,6.2,30.6c3.6,17.8,7.3,35.7,10.9,53.5c1.8,8.6,3.5,17.3,5.3,25.9
			c-3.3,1.9-6.2,4.3-8.7,7.1l-2.6-12.9L122.8,202.8z M171,289.9c-2.8,0-5.6,0.3-8.2,0.9c-1.7-8.1-3.3-16.3-5-24.4h37.4v32.3
			C188.6,293.2,180.2,289.9,171,289.9z M155.4,254.9c-2.2-10.6-4.3-21.1-6.5-31.7h46.2v31.7H155.4z M195.1,211.7h-48.5
			c-1.8-8.9-3.6-17.7-5.4-26.6h54V211.7z M246.7,223.2v31.7h-40v-31.7H246.7z M206.7,211.7v-26.6h40v26.6H206.7z M246.7,266.4v34.6
			h-40v-34.6H246.7z M298.3,223.2v31.7h-40v-31.7H298.3z M258.2,211.7v-26.6h40v26.6H258.2z M298.3,266.4v34.6h-40v-34.6H298.3z
			 M323.3,301.7c1.2-0.2,2.4-0.3,3.7-0.3c1.2,0,2.4,0.1,3.6,0.3c12.7,1.7,22.4,12.6,22.4,25.8c0,14.4-11.6,26-26,26
			c-3.5,0-6.8-0.7-9.9-1.9c-2.7-1.1-5.1-2.6-7.2-4.5c-5.5-4.8-8.9-11.8-8.9-19.6C300.9,314.3,310.7,303.5,323.3,301.7z M341.7,292.9
			c-4.5-2-9.5-3-14.8-3c-6.2,0-12,1.5-17.2,4.1v-27.6h37.4C345.4,275.3,343.5,284.1,341.7,292.9z M281.4,173.6H129.6H126
			c-6.1,0-11.1-5-11.1-11.1c0-6.1,5-11.1,11.1-11.1h9h165.1H379c6.1,0,11.1,5,11.1,11.1c0,6.1-5,11.1-11.1,11.1H281.4z M349.5,254.9
			h-39.7v-31.7H356C353.8,233.8,351.7,244.3,349.5,254.9z M358.3,211.7h-48.5v-26.6h54C362,194,360.1,202.9,358.3,211.7z"/>
		<path class="st9" d="M339.8,327.4c0-5.7-3.7-10.5-8.8-12.2c-1.3-0.4-2.7-0.7-4.1-0.7c-7.1,0-12.9,5.8-12.9,12.9
			c0,6.5,4.9,11.9,11.1,12.7c0.6,0.1,1.1,0.1,1.7,0.1C334.1,340.3,339.8,334.5,339.8,327.4z M319.8,327.4c0-3.9,3.2-7.1,7.1-7.1
			c1.3,0,2.6,0.4,3.6,1c2.1,1.2,3.5,3.5,3.5,6.1c0,3.7-2.8,6.8-6.5,7.1c-0.2,0-0.4,0-0.6,0C323,334.6,319.8,331.4,319.8,327.4z"/>
		<path class="st9" d="M158.1,327.4c0,6.7,5.1,12.2,11.6,12.8c0.4,0,0.8,0.1,1.3,0.1c7.1,0,12.9-5.8,12.9-12.9
			c0-5.5-3.4-10.2-8.3-12c-1.4-0.5-3-0.9-4.6-0.9C163.9,314.6,158.1,320.3,158.1,327.4z M178.1,327.4c0,3.5-2.6,6.5-5.9,7
			c-0.4,0.1-0.8,0.1-1.2,0.1c-3.9,0-7.1-3.2-7.1-7.1c0-3.9,3.2-7.1,7.1-7.1c1.5,0,2.9,0.5,4.1,1.3
			C176.9,322.9,178.1,325,178.1,327.4z"/>
	</g>
</g>
</svg>
