<?xml version="1.0" encoding="utf-8"?>
<!-- Generator: Adobe Illustrator 25.2.1, SVG Export Plug-In . SVG Version: 6.00 Build 0)  -->
<svg version="1.1" id="Layer_1" xmlns="http://www.w3.org/2000/svg" xmlns:xlink="http://www.w3.org/1999/xlink" x="0px" y="0px"
	 viewBox="0 0 438 438" style="enable-background:new 0 0 438 438;" xml:space="preserve">
<style type="text/css">
	.st0{fill:#F3F4F6;}
	.st1{fill:#472B23;}
	.st2{fill:#FFFFFF;}
	.st3{fill:#428BCA;}
	.st4{fill:#163557;}
</style>
<g>
	<circle class="st0" cx="219" cy="219" r="215"/>
	<g>
		<g>
			<g>
				<path class="st1" d="M341.8,130h-18.9h-19.4H96.2c-9.9,0-17.9,8-17.9,17.9v166.6c0,9.9,8,17.9,17.9,17.9h245.6
					c9.9,0,17.9-8,17.9-17.9V147.9C359.7,138,351.6,130,341.8,130z M342.1,314.5c0,0.2-0.1,0.3-0.3,0.3h-73.9h-14.7h-68.5h-14.7
					H96.2c-0.2,0-0.3-0.1-0.3-0.3V147.9c0-0.2,0.1-0.3,0.3-0.3h234h4.4h7.1c0.2,0,0.3,0.1,0.3,0.3V314.5z"/>
				<path class="st2" d="M342.1,314.5c0,0.2-0.1,0.3-0.3,0.3h-73.9h-14.7h-68.5h-14.7H96.2c-0.2,0-0.3-0.1-0.3-0.3V147.9
					c0-0.2,0.1-0.3,0.3-0.3h234h4.4h7.1c0.2,0,0.3,0.1,0.3,0.3V314.5z"/>
				<g>
					<path class="st1" d="M393.8,332.3H44.2c0,0,0,0,0,0c0,9,7.3,16.3,16.3,16.3h317C386.5,348.7,393.8,341.4,393.8,332.3
						C393.8,332.4,393.8,332.4,393.8,332.3z"/>
				</g>
				<g>
					<path class="st2" d="M237.7,340.7h-37.5c-4.7,0-8.7-3.6-9.1-8.3l1.6-0.2c0.4,3.9,3.6,6.9,7.6,6.9h37.5c3.9,0,7.2-3,7.6-6.9
						l1.6,0.2C246.4,337.2,242.5,340.7,237.7,340.7z"/>
				</g>
				<rect x="95.9" y="331.6" class="st2" width="246.1" height="1.6"/>
			</g>
			<g>
				<g>
					<rect x="122.8" y="248" class="st3" width="192.3" height="66.7"/>
					<rect x="130.9" y="237.7" class="st4" width="176.1" height="10.4"/>
					<circle class="st2" cx="148.9" cy="282.6" r="5"/>
					<path class="st4" d="M172.3,288.4c-3.2,0-5.8-2.6-5.8-5.8c0-3.2,2.6-5.8,5.8-5.8c3.2,0,5.8,2.6,5.8,5.8
						C178.1,285.8,175.5,288.4,172.3,288.4z M172.3,278.4c-2.3,0-4.3,1.9-4.3,4.3c0,2.3,1.9,4.3,4.3,4.3c2.3,0,4.3-1.9,4.3-4.3
						C176.6,280.3,174.7,278.4,172.3,278.4z"/>
					<g>
						<path class="st4" d="M298.7,272.1h-82.4v-8.4h82.4V272.1z M217.9,270.5h79.2v-5.3h-79.2V270.5z"/>
						<path class="st4" d="M298.7,286.8h-82.4v-8.4h82.4V286.8z M217.9,285.2h79.2V280h-79.2V285.2z"/>
						<path class="st4" d="M298.7,301.5h-82.4v-8.4h82.4V301.5z M217.9,299.9h79.2v-5.3h-79.2V299.9z"/>
					</g>
				</g>
				<g>
					<rect x="122.8" y="170.9" class="st3" width="192.3" height="66.7"/>
					<rect x="130.9" y="160.6" class="st4" width="176.1" height="10.4"/>
					<circle class="st2" cx="148.9" cy="205.5" r="5"/>
					<path class="st4" d="M172.3,211.3c-3.2,0-5.8-2.6-5.8-5.8c0-3.2,2.6-5.8,5.8-5.8c3.2,0,5.8,2.6,5.8,5.8
						C178.1,208.7,175.5,211.3,172.3,211.3z M172.3,201.3c-2.3,0-4.3,1.9-4.3,4.3s1.9,4.3,4.3,4.3c2.3,0,4.3-1.9,4.3-4.3
						S174.7,201.3,172.3,201.3z"/>
					<g>
						<path class="st4" d="M298.7,195h-82.4v-8.4h82.4V195z M217.9,193.4h79.2v-5.3h-79.2V193.4z"/>
						<path class="st4" d="M298.7,209.7h-82.4v-8.4h82.4V209.7z M217.9,208.1h79.2v-5.3h-79.2V208.1z"/>
						<path class="st4" d="M298.7,224.4h-82.4V216h82.4V224.4z M217.9,222.8h79.2v-5.3h-79.2V222.8z"/>
					</g>
				</g>
				<g>
					<rect x="122.8" y="93.8" class="st3" width="192.3" height="66.7"/>
					<rect x="130.9" y="83.5" class="st4" width="176.1" height="10.4"/>
					<path class="st2" d="M153.9,128.4c0,2.8-2.3,5-5,5c-2.8,0-5-2.3-5-5c0-2.8,2.3-5,5-5C151.6,123.4,153.9,125.6,153.9,128.4z"/>
					<path class="st4" d="M172.3,134.2c-3.2,0-5.8-2.6-5.8-5.8c0-3.2,2.6-5.8,5.8-5.8c3.2,0,5.8,2.6,5.8,5.8
						C178.1,131.6,175.5,134.2,172.3,134.2z M172.3,124.2c-2.3,0-4.3,1.9-4.3,4.3c0,2.3,1.9,4.3,4.3,4.3c2.3,0,4.3-1.9,4.3-4.3
						C176.6,126.1,174.7,124.2,172.3,124.2z"/>
					<g>
						<path class="st4" d="M298.7,117.9h-82.4v-8.4h82.4V117.9z M217.9,116.3h79.2v-5.3h-79.2V116.3z"/>
						<path class="st4" d="M298.7,132.6h-82.4v-8.4h82.4V132.6z M217.9,131h79.2v-5.3h-79.2V131z"/>
						<path class="st4" d="M298.7,147.3h-82.4v-8.4h82.4V147.3z M217.9,145.7h79.2v-5.3h-79.2V145.7z"/>
					</g>
				</g>
			</g>
		</g>
	</g>
</g>
</svg>
