<?xml version="1.0" encoding="utf-8"?>
<!-- Generator: Adobe Illustrator 25.2.1, SVG Export Plug-In . SVG Version: 6.00 Build 0)  -->
<svg version="1.1" id="Layer_1" xmlns="http://www.w3.org/2000/svg" xmlns:xlink="http://www.w3.org/1999/xlink" x="0px" y="0px"
	 viewBox="0 0 438 438" style="enable-background:new 0 0 438 438;" xml:space="preserve">
<style type="text/css">
	.st0{fill:#F3F4F6;}
	.st1{fill:#A3D8E5;}
	.st2{fill:#F8EED4;}
	.st3{fill:#EDEDED;}
	.st4{fill:#00B1C3;}
	.st5{fill:#C6C6C6;}
	.st6{fill:#8F4D3D;}
	.st7{fill:#B2B2B2;}
	.st8{fill:#5E5E5E;}
	.st9{fill:#5C3124;}
	.st10{fill:#DADADA;}
	.st11{fill:#F9B233;}
	.st12{fill:#552D20;}
	.st13{fill:#341F0F;}
	.st14{fill:#6EBEBF;}
	.st15{fill:#AFD3D3;}
	.st16{fill:#799431;}
</style>
<g>
	<circle class="st0" cx="219" cy="219" r="215"/>
	<g>
		<g>
			<rect x="91.6" y="161.1" class="st1" width="228.8" height="171.2"/>
			<polygon class="st1" points="91.7,161.1 320.1,161.1 203.5,83.7 			"/>
			<g>
				<g>
					<path class="st2" d="M231.6,121.5c-6.3,4.6-12,9.7-17.3,15c-9.6,9.7-18.7,19.9-24.9,30.9c-9.2,16.4-14.3,34.8-10.4,52.4
						c3.9,17.8,16.3,34.2,36.5,44.9c20.7,11,44.6,14.8,69.9,15c12.3,0.1,23.8-1.2,34.6-5.2V172.3h-0.3l-83-55
						C234.8,118.8,233.1,120.4,231.6,121.5z"/>
				</g>
				<g>
					<path class="st3" d="M291,301.2c-28.9,1.6-59.8-1-85.9-10.5c-26.6-9.7-48.1-25.4-60-45.3c-11.8-19.6-13.3-41.9-7.9-62.7
						c5.7-22.1,18.6-42.2,35.7-60.8c9.4-10.3,20-19.4,31.2-28.6c1.9-1.5,4-3.3,6.3-5.1l-6.8-4.5L91.7,161.1h0v171.2h228.8v-36.9
						C311.3,298.5,301.5,300.6,291,301.2z"/>
				</g>
			</g>
			<rect x="91.6" y="315.5" class="st4" width="228.8" height="16.8"/>
			<g>
				<polygon class="st5" points="320.5,159.8 205.7,83.7 92.2,162.2 92.2,189.4 205.7,110.9 320.5,187 				"/>
			</g>
			<g>
				<polygon class="st6" points="205.7,97.9 339.3,186.4 366.5,177.4 205.7,70.7 51.5,177.4 77.7,186.4 				"/>
				<g>
					<polygon class="st7" points="65,181.7 205.4,84.6 351.8,181.7 366,177 205.7,70.7 51.8,177.2 					"/>
				</g>
			</g>
			<g>
				<g>
					<path class="st6" d="M303.1,198.5h-70.9v133.8h70.9V198.5z M238.3,323.3V207.4h58.8v115.9H238.3z"/>
				</g>
				<g>
					<g>
						<path class="st8" d="M303.1,198.5h-70.9v133.8h70.9V198.5z M234.7,326.7V204.1h64.9v122.6H234.7z"/>
					</g>
					<rect x="238.3" y="207.4" class="st9" width="58.8" height="115.9"/>
				</g>
				<g>
					<path class="st10" d="M249.4,275.7c1.8-17.2,6.8-36.4,17.7-47.2c6-5.9,13.2-9.7,20.5-11.3c3.1-0.7,6.3-1.3,9.5-1.4v-8.3h-58.8
						v115.9h18.3C249.3,309.7,247.7,291.9,249.4,275.7z"/>
				</g>
				<path class="st11" d="M293,265.6c0,3.1-2.4,5.7-5.4,5.7c-3,0-5.4-2.6-5.4-5.7c0-3.1,2.4-5.7,5.4-5.7
					C290.6,259.9,293,262.5,293,265.6z"/>
			</g>
			<g>
				<rect x="106.7" y="192.8" class="st12" width="95.6" height="95.1"/>
				<rect x="113.9" y="199.9" class="st13" width="81.2" height="80.8"/>
				<rect x="118.4" y="205.1" class="st14" width="33.1" height="32.9"/>
				<rect x="157.5" y="205.1" class="st14" width="33.1" height="32.9"/>
				<rect x="118.4" y="242.5" class="st14" width="33.1" height="33"/>
				<rect x="157.4" y="242.5" class="st14" width="33.1" height="33"/>
				<g>
					<polygon class="st15" points="118.4,207.5 151.5,221.6 151.5,222.9 118.4,209 					"/>
					<polygon class="st15" points="151.5,224.1 151.5,225.5 118.4,212.1 118.4,210.5 					"/>
					<polygon class="st15" points="118.4,213.3 151.5,226.9 151.5,228.2 118.4,214.8 					"/>
				</g>
				<g>
					<polygon class="st15" points="118.4,250 151.5,264 151.5,265.4 118.4,251.5 					"/>
					<polygon class="st15" points="151.5,266.6 151.5,268 118.4,254.6 118.4,253 					"/>
					<polygon class="st15" points="118.4,255.8 151.5,269.4 151.5,270.7 118.4,257.3 					"/>
				</g>
				<g>
					<polygon class="st15" points="157.5,248.6 190.6,262.7 190.6,264.1 157.5,250.2 					"/>
					<polygon class="st15" points="190.6,265.3 190.6,266.7 157.5,253.3 157.5,251.6 					"/>
					<polygon class="st15" points="157.5,254.4 190.6,268 190.6,269.4 157.5,256 					"/>
				</g>
				<g>
					<polygon class="st15" points="157.5,212.5 190.6,226.6 190.6,227.9 157.5,214.1 					"/>
					<polygon class="st15" points="190.6,229.2 190.6,230.6 157.5,217.2 157.5,215.5 					"/>
					<polygon class="st15" points="157.5,218.3 190.6,231.9 190.6,233.3 157.5,219.9 					"/>
				</g>
			</g>
		</g>
		<g>
			<path class="st16" d="M46.9,337.3c0.3,0.9,2.8,6.8,13.3,6.8c0,0,0,0,0,0c1.4,0,2.9-0.1,4.5-0.3c0.2,0,0.5,0,0.7,0h87.4
				c3.2,0,7.6-1.6,10.7-3.9c4.2-3.1,4.4-8.6,2.8-12.8c-1.8-4.8-6-8.2-10-8.2c-1.1,0-2.2,0.3-3.2,0.8c-0.3,0.1-0.6,0.4-1,0.7
				c-1.8,2-3.6,3.3-4.8,4.1c-0.4,0.3-0.9,0.6-1.4,0.8c0,0-0.1,0-0.1,0.1c-2.5,1.3-5.5,0.3-6.8-2.2c-1.3-2.5-0.3-5.5,2.2-6.9
				c0,0,0.2-0.1,0.5-0.3c0.5-0.3,1.2-1,1.9-1.6c0.5-0.4,0.9-0.9,1.5-1.3c4.1-4.8,4.2-10.8,0.3-18l0,0c0,0-4.7-8.1-11.9-8.1
				c-1.6,0-3.2,0.4-4.9,1.1c-1.5,0.7-3.2,0.6-4.6-0.2c-1.4-0.8-2.4-2.2-2.6-3.8c-0.2-1.5-2.5-15.2-16.1-15.2c-0.1,0-0.2,0-0.3,0
				c0,0-0.2,0-0.4,0c-5.3,0-17.8,1.8-18,18.4c0,1.7-0.8,3.2-2.2,4.1c-1.4,0.9-3.1,1.2-4.6,0.6l0,0c0,0-2.3-0.8-5.4-0.8
				c-5.8,0-10.4,2.6-13.6,7.8c-0.7,1.3-3.5,7.9,5.3,14.5c1.8,1.3,2.5,3.7,1.7,5.8c-0.7,2.1-2.7,3.5-5,3.4l-0.3,0
				c-4.1,0-11.9,1.1-14.9,5.1C45.8,329.9,45.6,333,46.9,337.3C46.9,337.2,46.9,337.2,46.9,337.3C46.9,337.2,46.9,337.2,46.9,337.3
				C46.9,337.3,46.9,337.2,46.9,337.3z"/>
			<g>
				<path class="st5" d="M164.8,337.9H93.1c-0.2,0-0.4,0-0.6,0c-1.3,0.2-2.5,0.3-3.7,0.3h0c-8.6,0-10.6-4.8-10.9-5.6c0,0,0,0,0,0
					c0,0,0,0,0,0c0,0,0,0,0,0c-1-3.4-0.9-6,0.5-7.8c2.5-3.3,8.8-4.2,12.2-4.2h0.2c1.8,0.1,3.5-1.1,4.1-2.8c0.6-1.7,0-3.6-1.4-4.7
					c-7.2-5.4-4.9-10.8-4.3-11.9c2.6-4.3,6.4-6.4,11.2-6.4c2.5,0,4.4,0.6,4.4,0.6c1.3,0.5,2.7,0.3,3.8-0.5c1.1-0.8,1.8-2,1.8-3.4
					c0.1-8.9,4.5-12.6,8.8-14.1c-2.1-4.1-6.2-8.7-14-8.7c-0.1,0-0.2,0-0.3,0c0,0-0.2,0-0.4,0c-5.3,0-17.8,1.8-18,18.4
					c0,1.7-0.8,3.2-2.2,4.1c-1.4,0.9-3.1,1.2-4.6,0.6c0,0-2.3-0.8-5.4-0.8c-5.8,0-10.4,2.6-13.6,7.8c-0.7,1.3-3.5,7.9,5.3,14.5
					c1.8,1.3,2.5,3.7,1.7,5.8c-0.7,2.1-2.7,3.5-5,3.4l-0.3,0c-4.1,0-11.9,1.1-14.9,5.1c-1.6,2.2-1.8,5.3-0.6,9.5c0,0,0,0,0,0
					c0,0,0,0,0,0c0,0,0,0,0,0c0.3,0.9,2.8,6.8,13.3,6.8c0,0,0,0,0,0c1.4,0,2.9-0.1,4.5-0.3c0.2,0,0.5,0,0.7,0h87.4
					c3.2,0,7.6-1.6,10.7-3.9c0.7-0.5,1.3-1.2,1.8-1.9C165.2,337.9,165,337.9,164.8,337.9z"/>
			</g>
			<g>
				<path class="st5" d="M123.8,287.6c0,0-0.8,1.1-2.1,2.8c-0.3,0.4-0.6,0.8-0.9,1.3c-0.3,0.5-0.6,1-0.9,1.5
					c-0.3,0.5-0.5,1.1-0.8,1.6c-0.2,0.6-0.5,1.1-0.6,1.7l-0.3,0.8l-0.2,0.8c-0.2,0.6-0.2,1.1-0.2,1.7c-0.1,0.6,0,1.1,0,1.6
					c0,0.5,0.1,1,0.1,1.5c0.1,0.5,0.1,1,0.2,1.3c0.1,0.4,0.2,0.8,0.2,1.1c0.1,0.6,0.1,1,0.1,1s-0.3-0.2-0.7-0.7
					c-0.2-0.2-0.5-0.5-0.8-0.9c-0.3-0.3-0.5-0.8-0.8-1.3c-0.3-0.5-0.6-1-0.7-1.7c-0.2-0.6-0.4-1.3-0.4-2c-0.1-0.7-0.1-1.5,0-2.2
					c0.1-0.4,0.1-0.8,0.2-1.2l0.3-1.1c0.2-0.8,0.6-1.4,0.9-2.1c0.4-0.6,0.8-1.3,1.3-1.8c0.5-0.5,0.9-1,1.4-1.4
					c0.5-0.4,1-0.7,1.4-1.1C122.3,287.9,123.8,287.6,123.8,287.6z"/>
			</g>
			<g>
				<path class="st5" d="M138.3,317.3c0,0-1.4,0-3.5,0c-0.5,0-1,0-1.6,0.1c-0.6,0-1.1,0.1-1.7,0.1c-0.6,0-1.2,0.2-1.8,0.3
					c-0.6,0.2-1.2,0.2-1.7,0.5l-0.8,0.3l-0.8,0.4c-0.5,0.2-1,0.5-1.5,0.8c-0.5,0.2-0.9,0.6-1.3,1c-0.5,0.3-0.8,0.7-1.2,1
					c-0.3,0.4-0.7,0.6-1,0.9c-0.3,0.3-0.5,0.6-0.7,0.8c-0.4,0.4-0.7,0.7-0.7,0.7s0-0.4,0.1-1c0.1-0.3,0.1-0.7,0.2-1.1
					c0.1-0.5,0.3-0.9,0.5-1.4c0.2-0.5,0.5-1.1,0.9-1.6c0.4-0.5,0.8-1.1,1.4-1.6c0.5-0.5,1.1-1,1.8-1.3c0.3-0.2,0.7-0.4,1-0.5
					l1.1-0.4c0.7-0.3,1.5-0.3,2.2-0.5c0.7,0,1.5-0.1,2.2,0c0.7,0,1.4,0.2,2,0.3c0.6,0.1,1.2,0.4,1.7,0.5
					C137.3,316.3,138.3,317.3,138.3,317.3z"/>
			</g>
		</g>
		<g>
			<path class="st16" d="M274,337.3c0.3,0.9,2.8,6.8,13.3,6.8c0,0,0,0,0,0c1.4,0,2.9-0.1,4.5-0.3c0.2,0,0.5,0,0.7,0h87.4
				c3.2,0,7.6-1.6,10.7-3.9c4.2-3.1,4.4-8.6,2.8-12.8c-1.8-4.8-6-8.2-10-8.2c-1.1,0-2.2,0.3-3.2,0.8c-0.3,0.1-0.6,0.4-1,0.7
				c-1.8,2-3.6,3.3-4.8,4.1c-0.4,0.3-0.9,0.6-1.4,0.8c0,0-0.1,0-0.1,0.1c-2.5,1.3-5.5,0.3-6.8-2.2c-1.3-2.5-0.3-5.5,2.1-6.9
				c0,0,0.2-0.1,0.5-0.3c0.5-0.3,1.2-1,1.9-1.6c0.5-0.4,0.9-0.9,1.5-1.3c4.1-4.8,4.2-10.8,0.3-18l0,0c0,0-4.7-8.1-11.9-8.1
				c-1.6,0-3.2,0.4-4.9,1.1c-1.5,0.7-3.2,0.6-4.6-0.2c-1.4-0.8-2.4-2.2-2.6-3.8c-0.2-1.5-2.5-15.2-16.1-15.2c-0.1,0-0.2,0-0.3,0
				c0,0-0.2,0-0.4,0c-5.4,0-17.8,1.8-18,18.4c0,1.7-0.8,3.2-2.2,4.1c-1.4,0.9-3.1,1.2-4.6,0.6l0,0c0,0-2.3-0.8-5.4-0.8
				c-5.8,0-10.4,2.6-13.6,7.8c-0.7,1.3-3.5,7.9,5.3,14.5c1.8,1.3,2.5,3.7,1.7,5.8c-0.7,2.1-2.7,3.5-5,3.4l-0.3,0
				c-4.1,0-11.9,1.1-14.9,5.1C272.9,329.9,272.8,333,274,337.3C274,337.2,274,337.2,274,337.3C274,337.2,274,337.2,274,337.3
				C274,337.3,274,337.2,274,337.3z"/>
			<g>
				<path class="st5" d="M391.9,337.9h-71.6c-0.2,0-0.4,0-0.6,0c-1.3,0.2-2.5,0.3-3.7,0.3h0c-8.6,0-10.6-4.8-10.9-5.6c0,0,0,0,0,0
					c0,0,0,0,0,0c0,0,0,0,0,0c-1-3.4-0.9-6,0.5-7.8c2.5-3.3,8.8-4.2,12.2-4.2h0.2c1.8,0.1,3.5-1.1,4.1-2.8c0.6-1.7,0-3.6-1.4-4.7
					c-7.2-5.4-4.9-10.8-4.3-11.9c2.6-4.3,6.4-6.4,11.2-6.4c2.5,0,4.4,0.6,4.4,0.6c1.3,0.5,2.7,0.3,3.8-0.5c1.1-0.8,1.8-2,1.8-3.4
					c0.1-8.9,4.5-12.6,8.8-14.1c-2.1-4.1-6.2-8.7-14-8.7c-0.1,0-0.2,0-0.3,0c0,0-0.2,0-0.4,0c-5.4,0-17.8,1.8-18,18.4
					c0,1.7-0.8,3.2-2.2,4.1c-1.4,0.9-3.1,1.2-4.6,0.6c0,0-2.3-0.8-5.4-0.8c-5.8,0-10.4,2.6-13.6,7.8c-0.7,1.3-3.5,7.9,5.3,14.5
					c1.8,1.3,2.5,3.7,1.7,5.8c-0.7,2.1-2.7,3.5-5,3.4l-0.3,0c-4.1,0-11.9,1.1-14.9,5.1c-1.6,2.2-1.8,5.3-0.6,9.5c0,0,0,0,0,0
					c0,0,0,0,0,0c0,0,0,0,0,0c0.3,0.9,2.8,6.8,13.3,6.8c0,0,0,0,0,0c1.4,0,2.9-0.1,4.5-0.3c0.2,0,0.5,0,0.7,0h87.4
					c3.2,0,7.6-1.6,10.7-3.9c0.7-0.5,1.3-1.2,1.8-1.9C392.3,337.9,392.1,337.9,391.9,337.9z"/>
			</g>
			<g>
				<path class="st5" d="M350.9,287.6c0,0-0.8,1.1-2.1,2.8c-0.3,0.4-0.6,0.8-0.9,1.3c-0.3,0.5-0.6,1-0.9,1.5
					c-0.3,0.5-0.5,1.1-0.8,1.6c-0.2,0.6-0.5,1.1-0.6,1.7l-0.3,0.8l-0.2,0.8c-0.2,0.6-0.2,1.1-0.2,1.7c-0.1,0.6,0,1.1,0,1.6
					c0,0.5,0.1,1,0.1,1.5c0.1,0.5,0.1,1,0.2,1.3c0.1,0.4,0.2,0.8,0.2,1.1c0.1,0.6,0.1,1,0.1,1s-0.3-0.2-0.7-0.7
					c-0.2-0.2-0.5-0.5-0.8-0.9c-0.3-0.3-0.5-0.8-0.8-1.3c-0.3-0.5-0.6-1-0.7-1.7c-0.2-0.6-0.4-1.3-0.4-2c-0.1-0.7-0.1-1.5,0-2.2
					c0.1-0.4,0.1-0.8,0.2-1.2l0.3-1.1c0.2-0.8,0.6-1.4,0.9-2.1c0.4-0.6,0.8-1.3,1.3-1.8c0.5-0.5,0.9-1,1.4-1.4
					c0.5-0.4,1-0.7,1.4-1.1C349.4,287.9,350.9,287.6,350.9,287.6z"/>
			</g>
			<g>
				<path class="st5" d="M365.4,317.3c0,0-1.4,0-3.5,0c-0.5,0-1,0-1.6,0.1c-0.6,0-1.1,0.1-1.7,0.1c-0.6,0-1.2,0.2-1.8,0.3
					c-0.6,0.2-1.2,0.2-1.7,0.5l-0.8,0.3l-0.8,0.4c-0.5,0.2-1,0.5-1.5,0.8c-0.5,0.2-0.9,0.6-1.3,1c-0.5,0.3-0.8,0.7-1.2,1
					c-0.3,0.4-0.7,0.6-1,0.9c-0.3,0.3-0.5,0.6-0.7,0.8c-0.4,0.4-0.7,0.7-0.7,0.7s0-0.4,0.1-1c0.1-0.3,0.1-0.7,0.2-1.1
					c0.1-0.5,0.3-0.9,0.5-1.4c0.2-0.5,0.5-1.1,0.9-1.6c0.4-0.5,0.8-1.1,1.4-1.6c0.5-0.5,1.1-1,1.8-1.3c0.3-0.2,0.7-0.4,1-0.5
					l1.1-0.4c0.7-0.3,1.5-0.3,2.2-0.5c0.7,0,1.5-0.1,2.2,0c0.7,0,1.4,0.2,2,0.3c0.6,0.1,1.2,0.4,1.7,0.5
					C364.4,316.3,365.4,317.3,365.4,317.3z"/>
			</g>
		</g>
	</g>
</g>
</svg>
