<?xml version="1.0" encoding="utf-8"?>
<!-- Generator: Adobe Illustrator 25.2.1, SVG Export Plug-In . SVG Version: 6.00 Build 0)  -->
<svg version="1.1" id="Layer_1" xmlns="http://www.w3.org/2000/svg" xmlns:xlink="http://www.w3.org/1999/xlink" x="0px" y="0px"
	 viewBox="0 0 438 438" style="enable-background:new 0 0 438 438;" xml:space="preserve">
<style type="text/css">
	.st0{fill:#F3F4F6;}
	.st1{fill:#428BCA;}
	.st2{fill:#678CC3;}
	.st3{fill:#D0D8DC;}
	.st4{fill:#005EA7;}
	.st5{fill:#0096D9;}
	.st6{fill:#D3CFD9;}
</style>
<g>
	<circle class="st0" cx="219" cy="219" r="215"/>
	<g>
		<path class="st1" d="M110.9,292.2c-2.6-0.1-5.1-0.1-7.7-0.2c-8.9-0.2-17.9-0.4-26.4-3c-14.5-4.5-24.8-16.8-25-32.1
			c-1.3-23.8,17.9-48.6,31.8-50.6c12.8-1.9,24.3,11.7,37.7,9.7c18-2.7,23-65.1,72.2-72.4c40.8-6.1,78.8,47.4,79.6,47.3
			c7.2-1.1,30-31.9,56.1-35.8c40.3-6,38.1,54.6,55.8,67.6c8.1,5.9,24,0.9,33.4,3.5c16.2,4.5,20.2,25.7,9.7,37.6
			c-4.5,5.1-10.7,8.5-16.9,11.5c-48.4,22.6-102.5,18.9-154.4,19.5C208.2,295.3,159.5,293.3,110.9,292.2z"/>
		<g>
			<path class="st2" d="M5.3,213c-1.6,1.2-1.8,3.5-0.5,5l41.6,46.9l14.3-4.4c-15.6-17.3-29.1-39.2-50.3-50.7
				C8.4,210.9,6.7,212,5.3,213z"/>
			<path class="st3" d="M91.6,237.2c-26.4-1-48.4-26-62.8-29.9c-7.1-1.9-13.7,0-18.4,2.5c21.2,11.5,34.7,33.5,50.3,50.7l89.9-27.5
				C150.6,233.1,118.1,238.2,91.6,237.2z"/>
			<path class="st3" d="M413.9,174.4c-6.5,5.4-13.1,10.5-20.8,12.8c-4.7,1.4-14.8,2.3-15.5,0.3c-1-3.2,4.7-5.4,7.9-6.4
				c0.2-0.1,0.4-0.1,0.7-0.2c5.7-1.8,12.4-5.3,16.3-10.4c-2.1-0.7-4.2-1.3-6.2-1.8c-18.1-5.2-61.3,8-86,15.5
				c-24.8,7.6-160.9,41.2-190.4,50.3c-27.2,8.3-59.2,24.9-72.4,33.8c-2.4,1.6-6.9,31.1,98.2,8.3c43.8-9.5,165.7-40.9,221.2-57.9
				c55.5-17,58-27.2,60.8-32.4C429.6,182.6,426.6,179.1,413.9,174.4z"/>
			<g>
				<path class="st4" d="M348.6,204.1C348.6,204.1,348.6,204.1,348.6,204.1L68.6,276.7c-0.6,0.1-1.1-0.2-1.3-0.8
					c-0.1-0.6,0.2-1.1,0.8-1.3l280.1-72.6c0.6-0.1,1.1,0.2,1.3,0.8C349.5,203.4,349.2,204,348.6,204.1z"/>
			</g>
			<g>
				<path class="st4" d="M350.1,209.8C350.1,209.8,350.1,209.8,350.1,209.8L87,277.2c-0.6,0.1-1.1-0.2-1.3-0.8
					c-0.1-0.6,0.2-1.1,0.8-1.3l263.1-67.4c0.6-0.1,1.1,0.2,1.3,0.8C351,209.1,350.6,209.6,350.1,209.8z"/>
			</g>
			<path class="st4" d="M294.2,228c4.1-3.2,1.5-9.8-3.7-9.4c-30.6,2.6-78.2,4.1-94.9,3.8c-20.6-0.3-64.7-4.7-73.6-9.4
				c-8.8-4.7-16.5-5.8-13.5,4.1c3,10,56.9,20,96.7,23.1c28.9,2.2,55.3,0.6,67.5-0.5c4.6-0.4,9.1-2.2,12.7-5L294.2,228z"/>
			<path class="st5" d="M389.4,179.7c-1.1,0.4-2.1,0.8-3.2,1.1c-0.2,0.1-0.4,0.1-0.7,0.2c-3.2,1-8.9,3.2-7.9,6.4
				c0.6,2,10.8,1.1,15.5-0.3c2.3-0.7,4.5-1.6,6.6-2.8C396.6,182.1,392.9,180.9,389.4,179.7z"/>
			<path class="st4" d="M402.5,170.5c-3.2,4.2-8.2,7.3-13.1,9.2c3.5,1.2,7.2,2.3,10.3,4.7c5-2.6,9.7-6.2,14.2-10.1
				C410.2,173,406.3,171.7,402.5,170.5z"/>
			<g>
				<path class="st5" d="M270.4,240l-7.7,2.4c-2.1,0.6-4.3-0.5-4.9-2.6l0,0c-0.6-2.1,0.5-4.3,2.6-4.9l7.7-2.4L270.4,240z"/>
				<path class="st6" d="M281.9,225.5c-0.4,0-0.9,0.1-1.3,0.3l-14,4.3c-3.8,1.1-5.9,5.1-4.7,8.9c1.1,3.8,5.1,5.9,8.9,4.7l14-4.3
					c0.4-0.1,0.8-0.3,1.2-0.5c-1.5-1.6-2.8-3.7-3.5-6.2C281.7,230.1,281.6,227.6,281.9,225.5z"/>
				<path class="st5" d="M289.5,230.5c-1-3.3-4.3-5.4-7.6-5c-0.4,2.1-0.2,4.6,0.6,7.1c0.8,2.5,2,4.7,3.5,6.2
					C289,237.3,290.5,233.8,289.5,230.5z"/>
			</g>
			<g>
				<path class="st5" d="M236,242.8l-7.7,2.4c-2.1,0.6-4.3-0.5-4.9-2.6l0,0c-0.6-2.1,0.5-4.3,2.6-4.9l7.7-2.4L236,242.8z"/>
				<path class="st6" d="M247.5,228.3c-0.4,0-0.9,0.1-1.3,0.3l-14,4.3c-3.8,1.1-5.9,5.1-4.7,8.9c1.1,3.8,5.1,5.9,8.9,4.7l14-4.3
					c0.4-0.1,0.8-0.3,1.2-0.5c-1.5-1.6-2.8-3.7-3.5-6.2C247.3,232.9,247.2,230.4,247.5,228.3z"/>
				<path class="st5" d="M255.1,233.3c-1-3.3-4.3-5.4-7.6-5c-0.4,2.1-0.2,4.6,0.6,7.1c0.8,2.5,2,4.7,3.5,6.2
					C254.6,240.1,256.1,236.6,255.1,233.3z"/>
			</g>
			<path class="st2" d="M359.9,196.7l-3.1,0.9c-1.2,0.4-2.5-0.3-2.8-1.5l-1.9-6.2c-0.6-2.1,0.5-4.2,2.6-4.8l0,0
				c2.1-0.6,4.2,0.5,4.8,2.6l1.9,6.2C361.7,195,361.1,196.3,359.9,196.7z"/>
			<path class="st4" d="M76.6,264.6c-10.1,5.1-22.1,11.1-35.2,11.8c-13.1,0.8-31.5-1-9.9-9c24.4-9.1,42.6-12.9,51.3-12.4
				C91.5,255.5,76.6,264.6,76.6,264.6z"/>
			<g>
				<g>
					<path class="st2" d="M126.2,250.6c0.4,1.3-0.3,2.7-1.6,3.1c-1.3,0.4-2.7-0.3-3.1-1.6c-0.4-1.3,0.3-2.7,1.6-3.1
						C124.5,248.6,125.8,249.3,126.2,250.6z"/>
					<path class="st2" d="M139.4,246.6c0.4,1.3-0.3,2.7-1.6,3.1c-1.3,0.4-2.7-0.3-3.1-1.6c-0.4-1.3,0.3-2.7,1.6-3.1
						C137.6,244.6,139,245.3,139.4,246.6z"/>
					<path class="st2" d="M153.4,242.3c0.4,1.3-0.3,2.7-1.6,3.1c-1.3,0.4-2.7-0.3-3.1-1.6c-0.4-1.3,0.3-2.7,1.6-3.1
						C151.6,240.3,153,241,153.4,242.3z"/>
					<path class="st2" d="M166.6,238.3c0.4,1.3-0.3,2.7-1.6,3.1c-1.3,0.4-2.7-0.3-3.1-1.6c-0.4-1.3,0.3-2.7,1.6-3.1
						C164.8,236.3,166.2,237,166.6,238.3z"/>
				</g>
				<g>
					<path class="st2" d="M236.6,218c0.4,1.3-0.4,2.7-1.7,3c-1.3,0.4-2.7-0.4-3-1.7c-0.4-1.3,0.4-2.7,1.7-3
						C234.9,215.9,236.2,216.7,236.6,218z"/>
					<path class="st2" d="M249.8,214.3c0.4,1.3-0.4,2.7-1.7,3c-1.3,0.4-2.7-0.4-3-1.7c-0.4-1.3,0.4-2.7,1.7-3
						C248.1,212.2,249.5,213,249.8,214.3z"/>
					<path class="st2" d="M264,210.3c0.4,1.3-0.4,2.7-1.7,3c-1.3,0.4-2.7-0.4-3-1.7c-0.4-1.3,0.4-2.7,1.7-3
						C262.2,208.2,263.6,209,264,210.3z"/>
					<path class="st2" d="M277.2,206.6c0.4,1.3-0.4,2.7-1.7,3c-1.3,0.4-2.7-0.4-3-1.7c-0.4-1.3,0.4-2.7,1.7-3
						C275.5,204.5,276.8,205.2,277.2,206.6z"/>
				</g>
				<g>
					<path class="st2" d="M292,202.4c0.4,1.3-0.4,2.7-1.7,3c-1.3,0.4-2.7-0.4-3-1.7c-0.4-1.3,0.4-2.7,1.7-3
						C290.2,200.3,291.6,201.1,292,202.4z"/>
					<path class="st2" d="M305.2,198.7c0.4,1.3-0.4,2.7-1.7,3c-1.3,0.4-2.7-0.4-3-1.7c-0.4-1.3,0.4-2.7,1.7-3
						C303.5,196.6,304.8,197.3,305.2,198.7z"/>
					<path class="st2" d="M319.3,194.7c0.4,1.3-0.4,2.7-1.7,3c-1.3,0.4-2.7-0.4-3-1.7c-0.4-1.3,0.4-2.7,1.7-3
						C317.6,192.6,319,193.4,319.3,194.7z"/>
					<path class="st2" d="M332.6,190.9c0.4,1.3-0.4,2.7-1.7,3c-1.3,0.4-2.7-0.4-3-1.7c-0.4-1.3,0.4-2.7,1.7-3
						C330.9,188.9,332.2,189.6,332.6,190.9z"/>
				</g>
			</g>
		</g>
	</g>
</g>
</svg>
