<?xml version="1.0" encoding="utf-8"?>
<!-- Generator: Adobe Illustrator 25.2.1, SVG Export Plug-In . SVG Version: 6.00 Build 0)  -->
<svg version="1.1" id="Layer_1" xmlns="http://www.w3.org/2000/svg" xmlns:xlink="http://www.w3.org/1999/xlink" x="0px" y="0px"
	 viewBox="0 0 504.2 79.5" style="enable-background:new 0 0 504.2 79.5;" xml:space="preserve">
<style type="text/css">
	.st0{fill:#FFFFFF;}
</style>
<g id="Group_667" transform="translate(0 0)">
	<g id="Group_666" transform="translate(0)">
		<path id="Path_1519" d="M450.2,68.5l-1.9,4.7h3.8L450.2,68.5z M451.7,64.7l6.2,14.6h-3.3l-1.3-3.2h-6.1l-1.3,3.2h-3.3l6.2-14.6
			H451.7z"/>
		<path id="Path_1520" d="M398.4,68.5l-1.9,4.7h3.8L398.4,68.5z M401.5,76h-6.1l-1.3,3.2h-3.2l6.2-14.6h2.9l6.2,14.6h-3.3L401.5,76z
			"/>
		<path id="Path_1521" d="M329.5,70.5v-5.7h3.2v14.5h-3.2v-5.8h-5.9v5.8h-3.2V64.8h3.2v5.7L329.5,70.5z"/>
		<path id="Path_1522" d="M198.2,64.8c1.1,0,2.1,0.2,3.1,0.5c0.9,0.3,1.7,0.9,2.4,1.5c0.7,0.6,1.2,1.4,1.6,2.3
			c0.4,0.9,0.6,1.9,0.6,2.8v0c0,1-0.2,2-0.6,2.9c-0.4,0.9-0.9,1.7-1.6,2.3c-0.7,0.7-1.5,1.2-2.4,1.5c-1,0.4-2,0.6-3.1,0.6h-5.7V64.8
			H198.2z M198.2,76.4c0.6,0,1.2-0.1,1.8-0.3c0.5-0.2,1-0.5,1.4-0.9c0.4-0.4,0.7-0.9,0.9-1.4c0.2-0.6,0.3-1.2,0.3-1.8v0
			c0-0.6-0.1-1.2-0.3-1.8c-0.2-0.5-0.5-1-0.9-1.4c-0.4-0.4-0.9-0.7-1.4-0.9c-0.6-0.2-1.2-0.3-1.8-0.3h-2.5v8.7L198.2,76.4z"/>
		<path id="Path_1523" d="M360.1,68.5l-1.9,4.7h3.8L360.1,68.5z M361.6,64.7l6.2,14.6h-3.3l-1.3-3.2H357l-1.3,3.2h-3.2l6.2-14.6
			H361.6z"/>
		<path id="Path_1524" d="M254.2,78.7c-1,0.4-2,0.6-3.1,0.6h-5.7V64.8h5.7c1.1,0,2.1,0.2,3.1,0.5c0.9,0.3,1.7,0.9,2.4,1.5
			c0.7,0.6,1.2,1.4,1.6,2.3c0.4,0.9,0.6,1.9,0.6,2.8v0c0,1-0.2,2-0.6,2.9c-0.4,0.9-0.9,1.7-1.6,2.3
			C255.9,77.9,255.1,78.4,254.2,78.7z M251.1,76.4c0.6,0,1.2-0.1,1.8-0.3c0.5-0.2,1-0.5,1.4-0.9c0.4-0.4,0.7-0.9,0.9-1.4
			c0.2-0.6,0.3-1.2,0.3-1.8v0c0-0.6-0.1-1.2-0.3-1.8c-0.2-0.5-0.5-1-0.9-1.4c-0.4-0.4-0.9-0.7-1.4-0.9c-0.6-0.2-1.2-0.3-1.8-0.3
			h-2.5v8.7L251.1,76.4z"/>
		<path id="Path_1525" d="M310.7,68.5l-1.9,4.7h3.9L310.7,68.5z M312.2,64.7l6.2,14.6H315l-1.3-3.2h-6.1l-1.3,3.2H303l6.2-14.6
			H312.2z"/>
		<path id="Path_1526" d="M481.9,68.5l-1.9,4.7h3.8L481.9,68.5z M483.4,64.7l6.2,14.6h-3.3L485,76h-6.1l-1.3,3.2h-3.2l6.2-14.6
			H483.4z"/>
		<path id="Path_1527" d="M119.1,76.6c0.6,0,1.2-0.1,1.8-0.4c0.5-0.2,1-0.6,1.4-1c0.4-0.4,0.7-0.9,0.9-1.4c0.2-0.6,0.3-1.1,0.3-1.7
			v0c0-0.6-0.1-1.2-0.3-1.8c-0.2-0.5-0.5-1-0.9-1.4c-0.4-0.4-0.9-0.8-1.4-1c-0.6-0.2-1.2-0.4-1.8-0.4c-0.6,0-1.2,0.1-1.8,0.4
			c-0.5,0.2-1,0.6-1.4,1c-0.4,0.4-0.7,0.9-0.9,1.4c-0.2,0.6-0.3,1.2-0.3,1.7v0c0,0.6,0.1,1.2,0.3,1.8c0.2,0.5,0.5,1,0.9,1.5
			c0.4,0.4,0.9,0.7,1.4,1C117.8,76.5,118.4,76.6,119.1,76.6z M119.1,64.5c1.1,0,2.1,0.2,3.1,0.6c0.9,0.4,1.7,0.9,2.4,1.6
			c0.7,0.7,1.2,1.5,1.6,2.4c0.4,0.9,0.6,1.9,0.6,2.9v0c0,1-0.2,2-0.6,2.9c-0.4,0.9-0.9,1.7-1.6,2.4c-0.7,0.7-1.5,1.2-2.4,1.6
			c-1,0.4-2,0.6-3.1,0.6c-1.1,0-2.1-0.2-3.1-0.6c-0.9-0.4-1.7-0.9-2.4-1.6c-0.7-0.7-1.2-1.5-1.6-2.4c-0.4-0.9-0.6-1.9-0.6-2.9v0
			c0-1,0.2-2,0.6-2.9c0.4-0.9,0.9-1.7,1.6-2.4c0.7-0.7,1.5-1.2,2.4-1.6C116.9,64.7,118,64.5,119.1,64.5L119.1,64.5z"/>
		<path id="Path_1528" d="M138.4,70.5v-5.7h3.2v14.5h-3.2v-5.8h-5.9v5.8h-3.2V64.8h3.2v5.7L138.4,70.5z"/>
		<path id="Path_1529" d="M220.9,68.5l-1.9,4.7h3.8L220.9,68.5z M222.4,64.7l6.2,14.6h-3.3L224,76h-6.1l-1.3,3.2h-3.2l6.2-14.6
			H222.4z"/>
		<path id="Path_1530" d="M382.8,64.8v14.5H380l-7-9.2v9.2h-3.1V64.8h2.9l6.8,8.9v-8.9H382.8z"/>
		<path id="Path_1531" d="M499.8,68.2c-0.5-0.4-1.2-0.6-1.8-0.5h-3.2v4.2h3.2c0.7,0,1.3-0.2,1.8-0.6c0.4-0.4,0.7-0.9,0.6-1.5v0
			C500.6,69.1,500.3,68.6,499.8,68.2z M498.3,64.8c1.5-0.1,2.9,0.4,4,1.3c1,0.9,1.5,2.2,1.4,3.5v0c0,1-0.3,2-0.9,2.9
			c-0.6,0.7-1.4,1.3-2.2,1.6l3.5,5.2h-3.7l-3.1-4.6h-2.5v4.6h-3.2V64.8H498.3z"/>
		<path id="Path_1532" d="M182,70.6h6.8v2.8H182v3h7.9v2.8h-11V64.8h10.9v2.8H182V70.6z"/>
		<path id="Path_1533" d="M151.3,68.5l-1.9,4.7h3.8L151.3,68.5z M152.8,64.7l6.2,14.6h-3.3l-1.3-3.2h-6.1l-1.3,3.2h-3.3l6.2-14.6
			H152.8z"/>
		<rect id="Rectangle_1246" x="420.1" y="71.3" width="6.4" height="3"/>
		<path id="Path_1534" d="M463.1,73.5v5.8H460V64.8h3.2v5.7h5.9v-5.7h3.2v14.5H469v-5.8L463.1,73.5z"/>
		<rect id="Rectangle_1247" x="175.9" y="53.1" width="3.2" height="3.1"/>
		<path id="Path_1535" d="M297.7,68.2c-0.5-0.4-1.2-0.6-1.8-0.5h-3.2v4.2h3.2c0.7,0,1.3-0.2,1.8-0.6c0.4-0.4,0.7-0.9,0.6-1.5v0
			C298.4,69.1,298.1,68.6,297.7,68.2z M296.1,64.8c1.5-0.1,2.9,0.4,4,1.3c1,0.9,1.5,2.2,1.4,3.5v0c0,1-0.3,2-0.9,2.9
			c-0.6,0.7-1.4,1.3-2.2,1.6l3.5,5.2h-3.7l-3.1-4.6h-2.5v4.6h-3.2V64.8H296.1z"/>
		<path id="Path_1536" d="M347.3,69.8l-4.1,6.2h-0.1l-4-6.1v9.4h-3.2V64.8h3.4l3.8,6.1l3.8-6.1h3.4v14.5h-3.1V69.8z"/>
		<path id="Path_1537" d="M267.5,76.6c0.9,0,1.7-0.3,2.3-0.9c0.6-0.7,0.9-1.7,0.8-2.6v-8.3h3.2V73c0,1-0.1,2-0.5,2.9
			c-0.3,0.8-0.7,1.5-1.3,2c-0.6,0.6-1.3,1-2,1.2c-0.8,0.3-1.7,0.4-2.6,0.4c-1.7,0.1-3.3-0.5-4.6-1.6c-1.2-1.3-1.8-3.1-1.7-4.8v-8.3
			h3.2V73c-0.1,1,0.2,1.9,0.8,2.7C265.8,76.3,266.6,76.6,267.5,76.6z"/>
		<path id="Path_1538" d="M435.1,70.6c0.6,0,1.2-0.1,1.7-0.4c0.4-0.2,0.7-0.7,0.6-1.2v0c0-0.4-0.2-0.9-0.5-1.1
			c-0.5-0.3-1-0.4-1.6-0.4h-3.2v3.1L435.1,70.6z M435.8,64.8c1.3-0.1,2.5,0.3,3.5,1c0.8,0.7,1.3,1.7,1.3,2.7v0c0,0.4,0,0.7-0.2,1.1
			c-0.1,0.3-0.2,0.6-0.4,0.9c-0.2,0.3-0.4,0.5-0.6,0.7c-0.2,0.2-0.5,0.4-0.7,0.5c0.8,0.3,1.4,0.7,2,1.3c0.5,0.6,0.8,1.4,0.7,2.3v0
			c0,0.6-0.1,1.2-0.4,1.7c-0.3,0.5-0.6,0.9-1.1,1.2c-0.5,0.4-1.1,0.6-1.7,0.7c-0.7,0.2-1.5,0.3-2.2,0.2h-6.9V64.8H435.8z
			 M437.6,73.7c-0.5-0.3-1.2-0.5-1.8-0.4h-3.7v3.2h3.8c0.6,0,1.2-0.1,1.7-0.4c0.4-0.3,0.6-0.7,0.6-1.2v0
			C438.2,74.4,438,74,437.6,73.7L437.6,73.7z"/>
		<path id="Path_1539" d="M287.3,76.4v2.9h-10.4V64.8h3.2v11.6L287.3,76.4z"/>
		<path id="Path_1540" d="M418.6,76.4v2.9h-10.4V64.8h3.2v11.6L418.6,76.4z"/>
		<path id="Path_1541" d="M172.4,69.8l-4.1,6.2h-0.1l-4-6.1v9.4h-3.2V64.8h3.4l3.8,6.1l3.8-6.1h3.4v14.5h-3.1L172.4,69.8z"/>
		<path id="Path_1542" d="M239.8,79c-0.7,0.2-1.5,0.3-2.2,0.2h-6.9V64.8h6.7c1.2-0.1,2.5,0.3,3.5,1c0.8,0.7,1.3,1.7,1.3,2.7v0
			c0,0.4,0,0.7-0.2,1.1c-0.1,0.3-0.2,0.6-0.4,0.9c-0.2,0.3-0.4,0.5-0.6,0.7c-0.2,0.2-0.5,0.4-0.7,0.5c0.8,0.3,1.4,0.7,2,1.3
			c0.5,0.6,0.8,1.4,0.7,2.3v0c0,0.6-0.1,1.2-0.4,1.7c-0.3,0.5-0.6,0.9-1.1,1.2C241,78.6,240.4,78.9,239.8,79z M237.6,76.5
			c0.6,0,1.2-0.1,1.7-0.4c0.4-0.3,0.6-0.7,0.6-1.2v0c0-0.5-0.2-0.9-0.6-1.1c-0.5-0.3-1.2-0.5-1.8-0.4h-3.7v3.2L237.6,76.5z
			 M238.4,70.3c0.4-0.2,0.7-0.7,0.6-1.2v0c0-0.4-0.2-0.9-0.5-1.1c-0.5-0.3-1-0.4-1.6-0.4h-3.2v3.1h2.9
			C237.3,70.7,237.9,70.6,238.4,70.3L238.4,70.3z"/>
		<path id="Path_1543" d="M353.6,45.3c-0.1,1.2,0.7,2.2,1.9,2.4h17.4c-0.5-0.8-0.8-1.7-0.8-2.6c0.1-3.1,2.7-4.2,5-4.2
			c1.6,0,3.2,0.8,4.3,2l-2,2.5c-0.4-0.7-1.2-1.1-2-1.1c-0.8,0-1.4,0.6-1.6,1.3c-0.1,1.4,1.1,2.1,2.4,2.1h3.3l1.2,3.3h-27.4
			c-1.1,0-2.2-0.6-2.7-1.6c-0.8,1-2,1.6-3.3,1.6c-1.5,0-2.7,0-4.2,0h-26.5l1.8-3.3h7.2c-0.2-1.9-1.7-3.4-3.7-3.6v-3.2
			c4,0,6.6,2.4,7.4,6.8h16.9c0.7,0,1.7-0.4,1.7-1.4l0-5.5h3.7C353.6,42.3,353.6,43.8,353.6,45.3z"/>
		<path id="Path_1544" d="M307.9,33.6c0,3.1,0.1,11,0.1,13.6c0,2.3-1.4,3.7-4.1,3.7h-12.2c-0.7,0-1.3-0.2-1.8-0.6
			c-0.7,3.6-3.8,6.2-7.5,6.3c-1.1-1.2-1.3-1.6-2.5-2.9c2.8-0.2,6.4-2.1,6.4-5.2l-0.1-7.9h3.8l0.1,4.5c-0.1,1.2,0.8,2.2,1.9,2.3h10.9
			c0.7,0.1,1.3-0.4,1.4-1c0-0.1,0-0.2,0-0.3c0-1.9-0.1-10.9-0.1-12.8L307.9,33.6z"/>
		<path id="Path_1545" d="M315.2,33.6l0.1,17.4h-3.7l-0.1-17.4H315.2z"/>
		<path id="Path_1546" d="M256.3,51c-1,1.8-2.9,2.8-4.9,2.6c-2,0.2-3.9-0.9-4.9-2.6H230c-0.6,0-1.2-0.2-1.7-0.5
			c-0.6,3.7-3.7,6.4-7.5,6.3c-4.1,0-7.5-3.3-7.5-7.5c0-0.8-0.1-6.9-0.1-8.5h3.7c0,1.5,0.1,7.9,0.1,8.5c0,2.1,1.7,3.9,3.8,3.9
			c2.1,0,3.9-1.8,3.8-3.9c0,0,0,0,0,0l-0.1-8.5h3.8l0,4.6c-0.1,1.1,0.7,2.1,1.9,2.2H246c0.3-2.6,2.1-4.5,5.4-4.5
			c3.3,0,5.1,1.9,5.4,4.5h19.7c-0.4-2-2.1-3.4-4.2-3.5c-1.3,0-2.6,0.4-3.6,1.2l-1.5-2.7c1.4-1.3,3.2-1.9,5.1-1.9
			c5.8,0,8.1,5.4,8.1,10.2L256.3,51L256.3,51z M251.4,50.7c1.4,0,1.8-1.2,1.8-2.3c0-1.1-0.4-2.3-1.8-2.3s-1.8,1.2-1.8,2.3
			C249.6,49.5,250,50.7,251.4,50.7L251.4,50.7z"/>
		<rect id="Rectangle_1248" x="219.1" y="35.3" width="3.2" height="3.1"/>
		<path id="Path_1547" d="M204.6,33.6l0.1,17.4H201l-0.1-17.4H204.6z"/>
		<path id="Path_1548" d="M431,50.7c1.4,0,1.8-1.2,1.8-2.3c0-1.1-0.4-2.3-1.8-2.3s-1.8,1.2-1.8,2.3C429.3,49.5,429.7,50.7,431,50.7z
			 M498.4,43.5c-1.4,0-1.8,1.2-1.8,2.3c0,1.1,0.4,2.2,1.8,2.2c1.4,0,1.8-1.2,1.8-2.2C500.2,44.7,499.7,43.5,498.4,43.5L498.4,43.5z
			 M503.8,45.8c0,2.9-1.8,5.2-5.4,5.2h-62.5c-1,1.8-2.9,2.8-4.9,2.6c-2,0.2-3.9-0.9-4.9-2.6h-35.1l1.8-3.3h7.2
			c-0.2-1.9-1.7-3.4-3.7-3.6v-3.2c4,0,6.6,2.4,7.4,6.8h21.8c0.3-2.6,2.1-4.5,5.4-4.5c3.3,0,5.1,1.9,5.4,4.5h30.8
			c-0.4-2-2.1-3.4-4.2-3.5c-1.3-0.1-2.6,0.4-3.6,1.2l-1.5-2.7c1.4-1.3,3.2-2,5.1-1.9c4.4,0,6.8,3.2,7.7,6.8h22.5
			c-0.2-0.6-0.3-1.2-0.3-1.8c0-3,1.8-5.2,5.4-5.2C502,40.6,503.8,42.9,503.8,45.8L503.8,45.8z"/>
		<rect id="Rectangle_1249" x="350.2" y="53.1" width="3.2" height="3.1"/>
		<path id="Path_1549" class="st0" d="M69.8,31.8v36.1c-0.1,1.1-1,1.9-2.2,1.9l0.5,0H31.8c-0.3-0.1-0.6-0.2-0.9-0.3
			c-0.6-0.3-1-1-1.1-1.7v-24c0-1.3-1.1-2.4-2.4-2.4H15.6c-1.3,0-2.4,1.1-2.4,2.4c0,0,0,0,0,0v24c0,1.1-0.9,2-2,1.9
			c-0.1,0-0.2,0-0.2,0H3.7c-0.4,0-0.9-0.1-1.3-0.3c-0.6-0.4-0.9-1-0.9-1.7V31.9c-0.1-1,0.6-1.9,1.6-2c0.1,0,0.2,0,0.3,0l0.3,0h23.4
			l0.2,0c0.7,0,1.4-0.3,1.9-0.8c0.5-0.5,0.7-1.2,0.6-1.9v-2.3l0,0l0-20.2V3.6c0.1-1.1,1-2,2.1-2h7.5c1,0,1.9,0.8,2.1,1.7v23.9
			c0,0.7,0.2,1.4,0.7,1.9c0.5,0.5,1.2,0.8,1.9,0.8l0.2,0h23.7c0.6,0,1.2,0.2,1.6,0.7C69.7,30.9,69.8,31.4,69.8,31.8z M58.1,55.8
			V43.9c0-1.3-1.1-2.4-2.4-2.4c0,0,0,0,0,0H43.8c-1.3,0-2.4,1.1-2.4,2.4v11.9c0,1.3,1.1,2.4,2.4,2.4h11.9
			C57,58.1,58.1,57.1,58.1,55.8C58.1,55.8,58.1,55.8,58.1,55.8z"/>
		<path id="Path_1550" d="M179.4,45.3c-0.1,1.2,0.7,2.2,1.9,2.4h10.9c0.7,0.1,1.3-0.4,1.3-1c0-0.1,0-0.2,0-0.3
			c0-1.9-0.1-10.9-0.1-12.8h3.8c0,3.1,0.1,11,0.1,13.6c0,2.3-1.4,3.7-4.1,3.7h-12.2c-1.1,0-2.2-0.6-2.8-1.6c-0.8,1-2,1.6-3.3,1.6
			c-1.5,0-2.6,0-4.1,0h-65.4c-0.7,0-1.3-0.2-1.8-0.6c-0.7,3.6-3.8,6.2-7.5,6.3c-1.1-1.2-1.3-1.6-2.5-2.9c2.8-0.2,6.4-2.1,6.4-5.2
			l-0.1-7.9h3.8l0,4.5c-0.1,1.2,0.8,2.2,1.9,2.3h36.5c-0.4-2-2.1-3.4-4.2-3.5c-1.3-0.1-2.6,0.4-3.6,1.2l-1.5-2.7
			c1.4-1.3,3.2-2,5.1-1.9c4.4,0,6.8,3.2,7.7,6.8H174c0.7,0,1.7-0.4,1.7-1.4l-0.1-5.5h3.8C179.4,42.3,179.4,43.8,179.4,45.3z"/>
		<path id="Path_1551" d="M105.6,69.8l-4.1,6.2h-0.1l-4-6.1v9.4h-3.1V64.8h3.4l3.8,6.1l3.8-6.1h3.4v14.5h-3.2L105.6,69.8z"/>
		<path id="Path_1552" d="M58.1,43.9v11.9c0,1.3-1.1,2.4-2.4,2.4c0,0,0,0,0,0H43.8c-1.3,0-2.4-1.1-2.4-2.4V43.9
			c0-1.3,1.1-2.4,2.4-2.4h11.9C57,41.5,58.1,42.6,58.1,43.9z"/>
		<path id="Path_1553" d="M31.8,69.8h36.3l-0.5,0c1.1,0,2.1-0.8,2.2-1.9V31.8c0-0.4-0.1-0.9-0.3-1.3l1.2-0.8l8.7,12.5v0
			c0.8,0.7,1.2,1.7,1.1,2.8v30.7c-0.2,1.8-1.6,3.3-3.4,3.4v0H45.9c-0.9-0.1-1.8-0.4-2.4-1.1l0,0l-13.3-7.5l0.7-1.3
			C31.2,69.6,31.5,69.8,31.8,69.8z"/>
		<path id="Path_1554" d="M3.7,69.8H11c1.1,0.1,2.1-0.6,2.2-1.7c0-0.1,0-0.2,0-0.2v-24c0-1.3,1.1-2.4,2.4-2.4c0,0,0,0,0,0h11.9
			c1.3,0,2.4,1.1,2.4,2.4v24c0.1,0.7,0.5,1.3,1.1,1.7l-0.7,1.3l-0.7-0.4l0,0c-0.2-0.2-0.4-0.4-0.5-0.6v6l0,0.1
			c-0.1,2-1.9,3.6-3.9,3.4h-6.4c-1.2-0.1-2.4-0.4-3.5-1c-0.1,0-0.2-0.1-0.3-0.1L1.8,70.7l0.7-1.2C2.9,69.7,3.3,69.8,3.7,69.8z"/>
		<path id="Path_1555" d="M27.3,29.8l-0.2,0H3.7l-0.3,0c-1-0.1-1.9,0.7-1.9,1.7c0,0.1,0,0.2,0,0.3v35.9c0,0.7,0.4,1.3,0.9,1.7
			l-0.7,1.2l-0.7-0.4c-0.7-0.7-1-1.6-1.1-2.5V31.9c0-0.9,0.3-1.9,0.9-2.6c0.7-0.7,1.6-1.1,2.5-1l0.3,0h21.9l0.2,0
			c0.7,0,1.4-0.3,1.9-0.8c0.4-0.5,0.6-1.1,0.6-1.7l0-21.1V3.5c0.1-1.9,1.6-3.4,3.5-3.5l0.1,0h7.7l0.1,0c0.9,0.1,1.7,0.5,2.3,1
			l8.9,13c0.6,0.5,1.1,1.3,1.2,2.1l0,0.2v12h15.8c0.9,0,1.9,0.3,2.5,1l0.3,0.4l-1.2,0.8c-0.4-0.5-1-0.8-1.6-0.7H44.2l-0.2,0
			c-0.7,0-1.4-0.3-1.9-0.8c-0.5-0.5-0.7-1.2-0.7-1.9V3.3c-0.2-1-1.1-1.7-2.1-1.7H32c-1.1,0-2,0.9-2.1,2v1.1l0,20.2l0,0v2.2
			c0,0.7-0.2,1.4-0.6,1.9C28.7,29.6,28,29.8,27.3,29.8z"/>
	</g>
</g>
</svg>
